<?xml version="1.0" standalone="no"?>
<!DOCTYPE svg PUBLIC "-//W3C//DTD SVG 20010904//EN"
 "http://www.w3.org/TR/2001/REC-SVG-20010904/DTD/svg10.dtd">
<svg version="1.0" xmlns="http://www.w3.org/2000/svg"
 width="480.000000pt" height="480.000000pt" viewBox="0 0 480.000000 480.000000"
 preserveAspectRatio="xMidYMid meet">
<metadata>
Created by potrace 1.11, written by Peter Selinger 2001-2013
</metadata>
<g transform="translate(0.000000,480.000000) scale(0.100000,-0.100000)"
fill="#000000" stroke="none">
<path d="M1398 4227 c-544 -314 -988 -574 -988 -577 0 -3 166 -101 369 -218
l369 -213 991 573 c545 315 991 575 991 578 0 5 -734 431 -741 429 -2 0 -448
-258 -991 -572z"/>
<path d="M2532 3567 c-546 -315 -992 -574 -992 -577 0 -3 25 -18 55 -33 31
-15 220 -122 422 -239 202 -116 371 -211 377 -211 15 0 1970 1131 1974 1142 2
6 -703 415 -839 487 -3 2 -452 -254 -997 -569z"/>
<path d="M3533 2793 l-963 -556 0 -1119 0 -1119 28 15 c15 9 450 260 967 559
l940 543 3 1117 c1 614 -1 1117 -5 1117 -5 -1 -441 -251 -970 -557z"/>
<path d="M290 2233 l0 -1110 951 -549 c523 -302 955 -551 960 -552 5 -2 9 454
9 1106 l0 1109 -406 234 c-224 129 -410 236 -415 237 -5 2 -9 -114 -9 -268 l0
-271 -172 90 -173 90 -5 287 -5 286 -355 205 c-195 113 -361 207 -367 210 -10
4 -13 -221 -13 -1104z"/>
</g>
</svg>
